<svg xmlns="http://www.w3.org/2000/svg" viewBox="0 0 24 24" width="64" height="64">
  <!-- Exact background color and shape from sidebar branding -->
  <rect width="24" height="24" rx="6" fill="#10b981"/>
  
  <!-- Exact SVG path for HiOutlineCubeTransparent (from react-icons/hi2) -->
  <g fill="none" stroke="#020617" stroke-width="2.5" stroke-linecap="round" stroke-linejoin="round">
    <path d="M21 16.0003V8.00026C21 7.42026 20.69 6.88026 20.19 6.59026L13.19 2.59026C12.45 2.17026 11.55 2.17026 10.81 2.59026L3.80997 6.59026C3.30997 6.88026 2.99997 7.42026 2.99997 8.00026V16.0003C2.99997 16.5803 3.30997 17.1203 3.80997 17.4103L10.81 21.4103C11.55 21.8303 12.45 21.8303 13.19 21.4103L20.19 17.4103C20.69 17.1203 21 16.5803 21 16.0003Z" />
    <path d="M7.5 10.5L12 13L16.5 10.5" />
    <path d="M12 21V13" />
    <path d="M12 13L12 3" />
  </g>
</svg>